<svg width="25" height="25" viewBox="0 0 25 25" fill="none" xmlns="http://www.w3.org/2000/svg">
<path d="M8.49846 3.18372C5.41126 3.18372 2.90002 5.69728 2.90002 8.78528V16.7853C2.90002 19.8725 5.41359 22.3837 8.50159 22.3837H16.5016C19.5888 22.3837 22.1 19.8702 22.1 16.7822V8.78215C22.1 5.69495 19.5865 3.18372 16.4985 3.18372H8.49846ZM18.1 6.38372C18.5416 6.38372 18.9 6.74212 18.9 7.18372C18.9 7.62532 18.5416 7.98372 18.1 7.98372C17.6584 7.98372 17.3 7.62532 17.3 7.18372C17.3 6.74212 17.6584 6.38372 18.1 6.38372ZM12.5 7.98372C15.1472 7.98372 17.3 10.1365 17.3 12.7837C17.3 15.4309 15.1472 17.5837 12.5 17.5837C9.85282 17.5837 7.70002 15.4309 7.70002 12.7837C7.70002 10.1365 9.85282 7.98372 12.5 7.98372ZM12.5 9.58372C11.6513 9.58372 10.8374 9.92086 10.2373 10.521C9.63717 11.1211 9.30002 11.935 9.30002 12.7837C9.30002 13.6324 9.63717 14.4463 10.2373 15.0465C10.8374 15.6466 11.6513 15.9837 12.5 15.9837C13.3487 15.9837 14.1626 15.6466 14.7628 15.0465C15.3629 14.4463 15.7 13.6324 15.7 12.7837C15.7 11.935 15.3629 11.1211 14.7628 10.521C14.1626 9.92086 13.3487 9.58372 12.5 9.58372Z" fill="#333333"/>
</svg>
