<svg width="51" height="50" viewBox="0 0 51 50" fill="none" xmlns="http://www.w3.org/2000/svg">
<path d="M23.25 1.99999C22.9336 2.06249 22.668 2.26952 22.5312 2.56249L21.75 4.24999C21.3438 4.43358 16.2656 6.71483 13.0938 8.09374C12.7344 8.2539 12.5039 8.60937 12.5 8.99999C12.5 12.8125 14.1289 15.7773 15.6562 18.1875C17.1836 20.5976 18.5 22.5 18.5 24C18.5 24.418 18.3008 24.8203 17.7812 25.4687C17.2617 26.1172 16.4844 26.9297 15.6875 28.0625C14.0938 30.3281 12.5 33.8555 12.5 40C12.5 40.5508 12.9492 41 13.5 41H24.5V50H26.5V41H37.5C38.0508 41 38.5 40.5508 38.5 40C38.5 33.8555 36.9062 30.3281 35.3125 28.0625C34.5156 26.9297 33.7383 26.1172 33.2188 25.4687C32.6992 24.8203 32.5 24.418 32.5 24C32.5 22.5 33.8164 20.5976 35.3438 18.1875C36.8711 15.7773 38.5 12.8125 38.5 8.99999C38.4961 8.60937 38.2656 8.2539 37.9062 8.09374C34.7344 6.71483 29.6562 4.43358 29.25 4.24999L28.4688 2.56249C28.3008 2.21483 27.9492 1.99608 27.5625 1.99999H23.4375C23.4062 1.99999 23.375 1.99999 23.3438 1.99999C23.3125 1.99999 23.2812 1.99999 23.25 1.99999ZM24.0938 3.99999H26.9062L27.5938 5.43749C27.6992 5.64843 27.8789 5.81249 28.0938 5.90624C28.0938 5.90624 33.0156 8.12108 36.375 9.59374C36.207 12.5351 35.0312 14.957 33.6562 17.125C33.5469 17.2969 33.4219 17.457 33.3125 17.625C33.293 17.6328 33.2695 17.6445 33.25 17.6562C33.25 17.6562 32.5195 18 31.5 18C30.0586 18 29.1875 17.25 29.1875 17.25C28.9531 17.0508 28.6445 16.9726 28.3438 17.0312C27.9648 17.1094 27.668 17.3945 27.5742 17.7695C27.4805 18.1406 27.6094 18.5351 27.9062 18.7812C27.9062 18.7812 29.3398 20 31.5 20C31.625 20 31.7266 19.9766 31.8438 19.9687C31.082 21.2578 30.5 22.5508 30.5 24C30.5 25.082 31.0508 25.957 31.6562 26.7187C32.2617 27.4805 32.9844 28.2226 33.6875 29.2187C35 31.0859 36.2695 33.9062 36.4375 39H14.5625C14.7305 33.9062 16 31.0859 17.3125 29.2187C18.0156 28.2226 18.7383 27.4805 19.3438 26.7187C19.9492 25.957 20.5 25.082 20.5 24C20.5 22.5508 19.918 21.2578 19.1562 19.9687C19.2734 19.9766 19.375 20 19.5 20C21.6602 20 23.0938 18.7812 23.0938 18.7812C23.4297 18.4922 23.5352 18.0195 23.3555 17.6172C23.1758 17.2109 22.75 16.9726 22.3125 17.0312C22.1289 17.0547 21.957 17.1328 21.8125 17.25C21.8125 17.25 20.9414 18 19.5 18C18.4805 18 17.75 17.6562 17.75 17.6562C17.7305 17.6445 17.707 17.6328 17.6875 17.625C17.6836 17.6211 17.6602 17.6289 17.6562 17.625C17.5508 17.4609 17.4492 17.293 17.3438 17.125C15.9688 14.957 14.793 12.5351 14.625 9.59374C17.9844 8.12108 22.9062 5.90624 22.9062 5.90624C23.1211 5.81249 23.3008 5.64843 23.4062 5.43749L24.0938 3.99999Z" fill="#A8715A"/>
</svg>
