<svg width="79" height="32" viewBox="0 0 79 32" fill="none" xmlns="http://www.w3.org/2000/svg">
<g opacity="0.8" clip-path="url(#clip0_1290_2051)">
<path d="M2.18275 24.381V31.6294H0V15.6088H10.6667L10.955 17.1326C10.9138 17.1326 10.9138 17.1326 10.8726 17.0914C10.7902 17.0914 10.749 17.0914 10.749 17.0502C10.5843 16.8031 9.96654 16.556 8.93694 16.3089C7.86615 16.0618 6.46589 15.9382 4.69498 15.9382H2.18275V23.9691H9.14286V24.3398H2.18275V24.381Z" fill="black"/>
<path d="M18.2857 27.0991C18.2857 26.6872 18.2857 26.2754 18.2857 25.8636C18.2857 25.4105 18.2445 24.9987 18.2445 24.5457C18.0798 24.9163 17.7915 25.1634 17.3796 25.4105C16.9678 25.6165 16.5148 25.8224 16.0206 25.9871C15.5263 26.1518 14.991 26.3166 14.4556 26.4401C13.9202 26.6049 13.3848 26.7696 12.9318 27.0167C12.4787 27.2638 12.1081 27.5521 11.8198 27.9228C11.5315 28.2934 11.3668 28.7876 11.3668 29.3642C11.3668 30.0232 11.5315 30.4762 11.861 30.8056C12.1904 31.1351 12.6435 31.2999 13.22 31.2999C13.7966 31.2999 14.5379 31.1351 15.3204 30.7645C16.1441 30.3938 17.0502 29.8584 18.0386 29.1583C17.7915 29.4054 17.462 29.6937 17.0502 30.0232C16.6383 30.3526 16.1441 30.6409 15.6087 30.9292C15.0733 31.2175 14.5379 31.4646 14.0025 31.6293C13.426 31.8352 12.9318 31.9176 12.4787 31.9176C12.1081 31.9176 11.6962 31.8764 11.3256 31.7941C10.9549 31.7117 10.5843 31.5881 10.2548 31.3822C9.92532 31.1763 9.67821 30.9292 9.47229 30.5997C9.26637 30.2703 9.14282 29.8172 9.14282 29.2818C9.14282 28.8288 9.26637 28.417 9.51348 28.0875C9.76058 27.758 10.0901 27.4697 10.5019 27.2226C10.9137 26.9755 11.4079 26.7696 11.9433 26.6049C12.4787 26.4401 13.0141 26.2754 13.5907 26.1518C14.1673 25.9871 14.7027 25.8636 15.2381 25.74C15.7735 25.6165 16.2677 25.4517 16.6795 25.287C17.1325 25.1222 17.462 24.9163 17.7503 24.7104C17.9974 24.4633 18.1621 24.2162 18.2033 23.8867C18.1209 23.3925 18.0386 22.9395 17.8738 22.4865C17.7503 22.0334 17.5444 21.6628 17.2973 21.3333C17.0502 21.0038 16.7207 20.7567 16.35 20.5508C15.9794 20.3449 15.4852 20.3037 14.9498 20.3037C14.1261 20.3449 13.5083 20.4273 13.0965 20.592C12.6846 20.7567 12.3964 20.9627 12.1904 21.2098C11.9845 21.4569 11.9433 21.704 11.9433 21.9923C11.9433 22.2806 11.9433 22.5277 11.9433 22.7748C11.9433 23.063 11.861 23.269 11.6962 23.4337C11.5315 23.5984 11.3256 23.6396 11.0785 23.6396C10.8314 23.6396 10.5843 23.5573 10.3372 23.3513C10.0901 23.1454 10.0077 22.8983 10.0077 22.5688C10.0077 22.1158 10.2136 21.704 10.5843 21.3745C10.9549 21.045 11.4491 20.7567 11.9845 20.5508C12.5199 20.3449 13.0965 20.1802 13.6731 20.0978C14.2496 20.0154 14.7027 19.9742 15.0733 19.9742C16.2265 19.9742 17.1737 20.139 17.8738 20.4685C18.574 20.7979 19.1094 21.2509 19.48 21.7863C19.8507 22.3217 20.0978 22.9807 20.2213 23.722C20.3449 24.4633 20.3861 25.2046 20.3861 26.0283V31.6705H18.3269V27.0991H18.2857Z" fill="black"/>
<path d="M24.9163 30.8057C25.1222 31.094 25.4517 31.2999 25.9047 31.4234C26.3577 31.547 26.8108 31.6293 27.3461 31.6293C27.8404 31.6293 28.3757 31.5882 28.87 31.4646C29.4053 31.3411 29.8584 31.1763 30.2702 30.9704C30.6821 30.7645 31.0527 30.5174 31.2998 30.1879C31.5881 29.8996 31.7117 29.529 31.7117 29.1171C31.7117 28.6229 31.5057 28.2111 31.0527 27.9228C30.5997 27.6345 30.0231 27.3874 29.3642 27.1815C28.7052 26.9755 27.9639 26.7696 27.1814 26.6049C26.3989 26.4402 25.6576 26.193 24.9987 25.9459C24.3397 25.6577 23.7631 25.3282 23.3101 24.8752C22.8571 24.4221 22.6512 23.8456 22.6512 23.1454C22.6512 22.4865 22.8159 21.9511 23.1454 21.5393C23.4748 21.1274 23.9279 20.7979 24.4221 20.5508C24.9575 20.3037 25.4929 20.139 26.1106 20.0566C26.7284 19.9743 27.2638 19.9331 27.7992 19.9331C28.0463 19.9331 28.3757 19.9743 28.7876 20.0154C29.1994 20.0566 29.6113 20.1802 29.9819 20.3449C30.3526 20.5097 30.7232 20.6744 31.0115 20.9215C31.2998 21.1686 31.4646 21.4981 31.4646 21.8687C31.4646 22.1158 31.3822 22.3217 31.1763 22.4865C30.9703 22.6512 30.7644 22.7336 30.5173 22.7336C30.1878 22.7336 29.9819 22.6512 29.8172 22.5277C29.6525 22.4041 29.5701 22.2394 29.4877 22.0335C29.4053 21.8687 29.3642 21.6628 29.323 21.4569C29.2818 21.251 29.2406 21.0862 29.1171 20.9627C28.9111 20.7156 28.664 20.5097 28.4169 20.4273C28.1286 20.3449 27.7992 20.2625 27.4285 20.2625C27.0167 20.2625 26.6048 20.3037 26.193 20.3861C25.74 20.4685 25.3693 20.592 24.9987 20.7568C24.628 20.9215 24.3397 21.1686 24.1338 21.4157C23.8867 21.704 23.8043 22.0335 23.8043 22.4041C23.8043 22.7748 23.9279 23.1042 24.2162 23.3514C24.4633 23.5985 24.8339 23.8044 25.2458 24.0103C25.6576 24.175 26.1518 24.3398 26.7284 24.4633C27.2638 24.5869 27.8404 24.7104 28.4169 24.8752C28.9935 25.0399 29.5701 25.2046 30.1055 25.3694C30.6409 25.5341 31.1351 25.7812 31.5881 26.0283C31.9999 26.2754 32.3706 26.6049 32.6177 26.9755C32.8648 27.3462 33.0295 27.8404 33.0295 28.3758C33.0295 28.9936 32.8648 29.529 32.5353 29.982C32.2059 30.435 31.794 30.7645 31.2586 31.0528C30.7232 31.3411 30.1467 31.547 29.4877 31.6705C28.8288 31.7941 28.1286 31.8764 27.4285 31.8764C27.1814 31.8764 26.9343 31.8764 26.6048 31.8353C26.2754 31.7941 25.9459 31.7941 25.5752 31.7117C25.2046 31.6705 24.8751 31.5882 24.5045 31.4646C24.1338 31.3822 23.8455 31.2587 23.5572 31.094C23.2689 30.9292 23.063 30.7645 22.8571 30.5586C22.6924 30.3526 22.61 30.1055 22.61 29.7761C22.61 29.529 22.6924 29.3642 22.8983 29.1995C23.1042 29.0347 23.3101 28.9524 23.5572 28.9524C23.8867 28.9524 24.0926 29.0347 24.2573 29.1583C24.4221 29.2819 24.5045 29.4466 24.5868 29.6525C24.628 29.8584 24.7104 30.0232 24.7104 30.2291C24.7516 30.5174 24.8339 30.6821 24.9163 30.8057Z" fill="black"/>
<path d="M34.5946 15.6087L36.6538 14.4968V31.6705H34.5946V15.6087ZM36.9009 21.3333C37.0656 21.0862 37.3128 20.8803 37.5599 20.7156C37.807 20.5508 38.0952 20.3861 38.4247 20.3037C38.7542 20.2213 39.0425 20.0978 39.372 20.0566C39.7014 20.0154 39.9897 19.9742 40.3192 19.9742C41.2664 19.9742 42.0489 20.0978 42.6667 20.3037C43.2844 20.5096 43.8198 20.8391 44.1905 21.2098C44.6023 21.5804 44.8906 22.0334 45.0965 22.5277C45.3025 23.0219 45.4672 23.5573 45.5496 24.0926C45.6319 24.6692 45.6731 25.2046 45.7143 25.8224C45.7143 26.399 45.7143 26.9755 45.7143 27.5109V31.6705H43.6551V27.305C43.6551 26.8932 43.6551 26.4813 43.6551 25.9871C43.6551 25.4929 43.6139 24.9987 43.5727 24.4633C43.5315 23.9279 43.408 23.4337 43.2844 22.9395C43.1609 22.4453 42.955 22.0334 42.7079 21.6216C42.4608 21.2509 42.0901 20.9215 41.6783 20.7156C41.2664 20.4685 40.731 20.3449 40.0721 20.3449C39.5367 20.3449 39.1248 20.3861 38.7542 20.4685C38.3835 20.5508 38.0952 20.6332 37.8481 20.7156C37.601 20.7979 37.3951 20.9215 37.2716 21.045C37.1068 21.1686 36.9833 21.2509 36.9009 21.3333Z" fill="black"/>
<path d="M50.3813 19.6036V31.6293H48.3221V20.7155L50.3813 19.6036Z" fill="black"/>
<path d="M47.7577 16.0611C47.4331 16.2318 46.6311 16.3076 46.6311 16.3076V16.611C46.6311 16.611 47.4331 16.6869 47.7577 16.8576C48.0632 17.0282 48.3305 17.2558 48.5214 17.5592C48.7315 17.8625 48.8651 18.2039 48.9606 18.6021C49.0561 19.0003 49.0942 19.3435 49.0942 19.3435H49.3616C49.3616 19.3435 49.4558 18.7991 49.4952 18.6021C49.5907 18.2039 49.7434 17.8625 49.9344 17.5592C50.1253 17.2558 50.3735 17.0282 50.6981 16.8576C51.0227 16.6869 51.8247 16.611 51.8247 16.611V16.3076C51.8247 16.3076 51.0227 16.2318 50.6981 16.0611C50.3926 15.8905 50.1253 15.6629 49.9344 15.3595C49.7243 15.0561 49.5907 14.7148 49.4952 14.3166C49.4514 14.0819 49.3616 13.4839 49.3616 13.4839H49.0942C49.0942 13.4839 49.0055 14.165 48.9606 14.3166C48.8651 14.7148 48.7124 15.0561 48.5214 15.3595C48.3305 15.6629 48.0823 15.8905 47.7577 16.0611Z" fill="black"/>
<path d="M52.8584 25.9459C52.8584 25.1634 52.982 24.4221 53.2291 23.6808C53.4762 22.9395 53.888 22.3217 54.4234 21.7452C54.9588 21.1686 55.6177 20.7568 56.4002 20.4273C57.1827 20.0978 58.13 19.9331 59.2007 19.9331C60.2715 19.9331 61.2188 20.0978 62.0013 20.4273C62.7838 20.7568 63.4427 21.2098 63.9781 21.7864C64.5135 22.3629 64.8841 22.9807 65.1312 23.722C65.3783 24.4221 65.5019 25.2046 65.5019 25.9459C65.5019 26.7284 65.3783 27.4698 65.1312 28.2111C64.8841 28.9524 64.4723 29.5701 63.9369 30.1467C63.4015 30.7233 62.7426 31.1351 61.9601 31.4646C61.1776 31.7941 60.2303 31.9588 59.2007 31.9588C58.1711 31.9588 57.1827 31.7941 56.4002 31.4646C55.6177 31.1351 54.9588 30.6821 54.4234 30.1055C53.888 29.529 53.5173 28.9112 53.2291 28.1699C52.982 27.4698 52.8584 26.7284 52.8584 25.9459ZM58.13 20.4273C57.4298 20.4273 56.8532 20.592 56.4002 20.9215C55.9472 21.251 55.5765 21.6628 55.3294 22.157C55.0823 22.6512 54.9588 23.269 54.8764 23.9279C54.8352 24.5869 54.8764 25.287 55 25.9871C55.1235 26.6873 55.3294 27.3462 55.6589 28.0463C55.9472 28.7053 56.3179 29.2818 56.7709 29.8172C57.2239 30.3115 57.7181 30.7645 58.2947 31.0528C58.8713 31.3822 59.489 31.547 60.1892 31.547C60.8893 31.547 61.4247 31.3822 61.8777 31.0528C62.3307 30.7233 62.6602 30.3115 62.9073 29.8172C63.1544 29.323 63.278 28.7053 63.3603 28.0463C63.4015 27.3874 63.3603 26.6873 63.2368 25.9871C63.1132 25.287 62.8661 24.6281 62.5778 23.9279C62.2895 23.269 61.9189 22.6924 61.4659 22.157C61.0128 21.6628 60.5186 21.2098 59.9421 20.9215C59.3655 20.6332 58.8301 20.4273 58.13 20.4273Z" fill="black"/>
<path d="M67.2683 20.7155L69.3275 19.6036V31.6293H67.2683V20.7155ZM69.5334 21.3333C69.6982 21.0862 69.9453 20.8803 70.1924 20.7155C70.4395 20.5508 70.7278 20.3861 71.0572 20.3037C71.3867 20.2213 71.675 20.0978 72.0045 20.0566C72.3339 20.0154 72.6222 19.9742 72.9517 19.9742C73.8989 19.9742 74.6814 20.0978 75.2992 20.3037C75.917 20.5096 76.4524 20.8391 76.823 21.2098C77.2348 21.5804 77.5231 22.0334 77.7291 22.5276C77.935 23.0219 78.0997 23.5572 78.1821 24.0926C78.2645 24.6692 78.3056 25.2046 78.3468 25.8224C78.3468 26.3989 78.3468 26.9755 78.3468 27.5109V31.6705H76.2876V27.305C76.2876 26.8932 76.2876 26.4813 76.2876 25.9871C76.2876 25.4929 76.2464 24.9987 76.2052 24.4633C76.1641 23.9279 76.0405 23.4337 75.917 22.9395C75.7934 22.4453 75.5875 22.0334 75.3404 21.6216C75.0933 21.2509 74.7226 20.9215 74.3108 20.7155C73.8989 20.4684 73.3635 20.3449 72.7046 20.3449C72.1692 20.3449 71.7574 20.3861 71.3867 20.4684C71.0161 20.5508 70.7278 20.6332 70.4807 20.7155C70.2336 20.7979 70.0276 20.9215 69.9041 21.045C69.7394 21.1686 69.6158 21.2509 69.5334 21.3333Z" fill="black"/>
<path d="M22.4813 0.864929C24.1287 0.864929 25.5701 1.11203 26.8057 1.56506C28.0412 2.05927 29.0708 2.67703 29.8945 3.45952C30.7181 4.24202 31.3359 5.10689 31.7477 6.13649C32.1596 7.1249 32.3655 8.1545 32.3655 9.22529C32.3655 10.2549 32.1596 11.2845 31.7477 12.2729C31.3359 13.2613 30.7181 14.1674 29.8945 14.9499C29.0708 15.7324 28.0412 16.3501 26.8057 16.8443C25.5701 17.3385 24.1287 17.5856 22.4813 17.5856C20.834 17.5856 19.3925 17.3385 18.157 16.8443C16.9215 16.3501 15.8919 15.7324 15.0682 14.9499C14.2445 14.1674 13.6268 13.2613 13.2149 12.2729C12.8031 11.2845 12.5972 10.2549 12.5972 9.22529C12.5972 8.1545 12.8031 7.16609 13.2149 6.13649C13.6268 5.14807 14.2445 4.24202 15.0682 3.45952C15.8919 2.67703 16.9215 2.05927 18.157 1.56506C19.3925 1.11203 20.834 0.864929 22.4813 0.864929ZM23.7169 17.0503C24.9524 17.0503 26.0232 16.8443 26.888 16.3913C27.7529 15.9383 28.453 15.3617 28.9884 14.6204C29.5238 13.8791 29.8533 13.0554 30.018 12.1082C30.1827 11.1609 30.1827 10.2137 30.0592 9.22529C29.8945 8.23687 29.6062 7.28964 29.112 6.34241C28.6178 5.39517 28.0412 4.57149 27.2999 3.83018C26.5586 3.08887 25.6937 2.51229 24.6641 2.05927C23.6345 1.60624 22.5225 1.40032 21.287 1.40032C20.0103 1.40032 18.9395 1.60624 18.0746 2.05927C17.2098 2.51229 16.5097 3.08887 16.0154 3.83018C15.48 4.57149 15.1506 5.39517 14.9858 6.34241C14.8211 7.28964 14.8211 8.23687 14.9447 9.22529C15.1094 10.2137 15.3977 11.1609 15.8507 12.1082C16.3037 13.0554 16.9215 13.8791 17.6628 14.6204C18.4041 15.3617 19.3102 15.9383 20.2986 16.3913C21.3282 16.8032 22.4813 17.0503 23.7169 17.0503Z" fill="black"/>
<path d="M34.5946 4.73618L36.6538 3.62421V10.4608C36.695 11.1609 36.8185 11.861 37.0245 12.4788C37.2304 13.0965 37.5187 13.6731 37.9305 14.1261C38.3012 14.5792 38.7542 14.991 39.3308 15.2381C39.8662 15.5264 40.4839 15.6499 41.1841 15.6499C42.0489 15.6499 42.7079 15.3617 43.2433 14.8263C43.7786 14.2909 44.1081 13.5907 44.314 12.7671C44.52 11.9434 44.5611 11.0373 44.4788 10.0901C44.3964 9.14287 44.1493 8.23682 43.7786 7.41314C43.408 6.58946 42.9138 5.88933 42.296 5.35394C41.6783 4.81854 40.9369 4.53026 40.1133 4.53026C39.825 4.53026 39.4955 4.57144 39.2072 4.69499C38.9189 4.81854 38.6306 4.9421 38.3424 5.10683C38.0541 5.27157 37.807 5.47749 37.601 5.68341C37.3539 5.88933 37.1892 6.13643 37.0656 6.34235C37.3951 5.64222 37.9305 5.06565 38.6306 4.61262C39.372 4.1596 40.1544 3.95368 40.9781 3.95368C42.0077 3.95368 42.8726 4.11842 43.6139 4.44789C44.3552 4.77736 44.9318 5.23038 45.426 5.80696C45.879 6.38354 46.2497 7.0013 46.4556 7.74261C46.6615 8.48392 46.7851 9.18405 46.7851 9.96655C46.7851 10.749 46.6615 11.4492 46.4556 12.1905C46.2497 12.8906 45.879 13.5496 45.426 14.1261C44.973 14.7027 44.3552 15.1557 43.6139 15.4852C42.8726 15.8147 42.0077 16.0206 41.0193 16.0206C39.9485 16.0206 39.0425 15.8559 38.3424 15.5676C37.6422 15.2793 37.1068 14.8675 36.695 14.3732V21.4157H34.6358V4.73618H34.5946Z" fill="black"/>
<path d="M51.5953 7.90735C51.5953 8.68984 51.7189 9.47234 51.966 10.296C52.2131 11.1197 52.5837 11.8198 53.0367 12.52C53.4898 13.1789 54.0663 13.7143 54.7253 14.1261C55.3842 14.538 56.1256 14.7439 56.908 14.7439C57.6494 14.7439 58.3083 14.5792 58.8849 14.2909C59.4615 13.9614 59.9557 13.5907 60.3675 13.1789C60.7793 12.7671 61.1088 12.314 61.3147 11.9022C61.5618 11.4904 61.6854 11.1609 61.6854 10.955C61.6442 11.4904 61.4383 12.0669 61.1088 12.6023C60.7793 13.1377 60.3675 13.6319 59.8321 14.085C59.2967 14.538 58.7201 14.8675 58.02 15.1557C57.3199 15.4028 56.5786 15.5676 55.7961 15.5676C54.7253 15.5676 53.7781 15.4028 52.9956 15.0734C52.2131 14.7439 51.5541 14.2909 51.0187 13.7143C50.4833 13.1377 50.1127 12.52 49.8244 11.7786C49.5773 11.0785 49.4537 10.296 49.4537 9.55471C49.4537 8.52511 49.6185 7.66024 49.9479 6.91893C50.2774 6.17762 50.7304 5.55986 51.2658 5.06565C51.8012 4.57144 52.419 4.20078 53.1191 3.99486C53.8192 3.74776 54.5194 3.62421 55.2195 3.62421C55.7549 3.62421 56.2903 3.70657 56.7845 3.87131C57.3199 4.03605 57.7729 4.28315 58.2259 4.61262C58.679 4.9421 59.0496 5.31275 59.3791 5.72459C59.7086 6.17762 59.9557 6.63064 60.1616 7.16603C60.244 7.41314 60.2028 7.61906 60.0792 7.78379C59.9557 7.94853 59.7497 8.0309 59.4615 8.0309H51.5953V7.90735ZM54.8077 3.91249C54.2723 3.91249 53.8192 3.99486 53.4074 4.20078C52.9956 4.4067 52.6661 4.65381 52.419 4.98328C52.1719 5.31275 51.966 5.72459 51.8012 6.13643C51.6777 6.58946 51.5953 7.04248 51.5541 7.53669H58.3083C58.2259 7.2484 58.1024 6.91893 57.9377 6.50709C57.7729 6.09525 57.5258 5.68341 57.2375 5.31275C56.9492 4.9421 56.6198 4.61262 56.2079 4.32434C55.7961 4.03605 55.3019 3.91249 54.8077 3.91249Z" fill="black"/>
<path d="M62.8037 4.61258L64.8629 3.50061V15.5264H62.8037V4.61258ZM65.11 5.23034C65.2748 4.98324 65.5219 4.77732 65.769 4.61258C66.0161 4.44784 66.3044 4.28311 66.6338 4.20074C66.9633 4.07719 67.2516 3.99482 67.5811 3.95363C67.9105 3.91245 68.1988 3.87127 68.5283 3.87127C69.4755 3.87127 70.258 3.99482 70.8758 4.20074C71.4935 4.40666 72.0289 4.73613 72.3996 5.10679C72.8114 5.47744 73.0997 5.93047 73.3056 6.42468C73.5116 6.91889 73.6763 7.45428 73.7587 7.98967C73.841 8.56625 73.8822 9.10164 73.9234 9.7194C73.9234 10.296 73.9234 10.8726 73.9234 11.4079V15.5675H71.8642V11.202C71.8642 10.7902 71.8642 10.3783 71.8642 9.84295C71.8642 9.34874 71.823 8.85454 71.7818 8.31914C71.7406 7.78375 71.6171 7.28954 71.4935 6.79533C71.37 6.30112 71.1641 5.88928 70.917 5.47744C70.6699 5.10679 70.2992 4.77732 69.8874 4.53021C69.4755 4.28311 68.9401 4.15956 68.2812 4.15956C67.7458 4.15956 67.334 4.20074 66.9633 4.28311C66.5926 4.36547 66.3044 4.44784 66.0573 4.53021C65.8101 4.61258 65.6042 4.73613 65.4807 4.85968C65.3159 5.02442 65.1924 5.14797 65.11 5.23034Z" fill="black"/>
</g>
<defs>
<clipPath id="clip0_1290_2051">
<rect width="78.0849" height="32" fill="white"/>
</clipPath>
</defs>
</svg>
